<svg width="58" height="53" viewBox="0 0 58 53" fill="none" xmlns="http://www.w3.org/2000/svg">
<path fill-rule="evenodd" clip-rule="evenodd" d="M12.0471 0C8.73625 0 6.28817 3.32376 6.39933 6.92474C6.50325 10.3899 6.36792 14.8724 5.38433 18.5288C4.3935 22.1935 2.726 24.5166 0 24.8159V28.1841C2.726 28.4807 4.39592 30.8037 5.38192 34.4712C6.36792 38.1276 6.50325 42.6101 6.39692 46.0725C6.28817 49.6762 8.73625 53 12.0471 53H45.9578C49.2686 53 51.7167 49.6762 51.6055 46.0725C51.5016 42.6101 51.6369 38.1276 52.6205 34.4712C53.6089 30.8037 55.274 28.4834 58 28.1841V24.8159C55.274 24.5166 53.6089 22.1935 52.6205 18.5288C51.6369 14.8696 51.5016 10.3871 51.6055 6.92474C51.7167 3.32099 49.2662 0 45.9578 0H12.0471ZM39.3192 32.625C39.3192 37.5871 36.0929 40.5948 30.74 40.5948H21.6268C21.3659 40.5948 21.1157 40.4759 20.9313 40.2643C20.7468 40.0528 20.6432 39.7658 20.6432 39.4666V13.5307C20.6438 13.2319 20.7477 12.9457 20.9321 12.7347C21.1165 12.5237 21.3663 12.4052 21.6268 12.4052H30.6893C35.1528 12.4052 38.0843 15.1773 38.0843 19.438C38.0843 22.4264 36.1123 25.1015 33.6013 25.5727V25.728C37.0209 26.1576 39.3216 28.8743 39.3216 32.625H39.3192ZM29.7492 15.9785H24.5533V24.4001H28.9299C32.3133 24.4001 34.1789 22.8367 34.1789 20.0424C34.1789 17.4255 32.5743 15.9785 29.7492 15.9785ZM24.5533 27.7405V37.0188H29.9425C33.4636 37.0188 35.3317 35.3971 35.3317 32.3505C35.3317 29.3012 33.4128 27.7405 29.7153 27.7405H24.5533V27.7405Z" fill="#3F00F2"/>
</svg>
