<svg width="36" height="36" viewBox="0 0 36 36" fill="none" xmlns="http://www.w3.org/2000/svg">
<path d="M19.8211 18L29.0496 6.99961C29.2043 6.8168 29.0742 6.53906 28.8351 6.53906H26.0297C25.8644 6.53906 25.7062 6.61289 25.5972 6.73945L17.9859 15.8133L10.3746 6.73945C10.2691 6.61289 10.1109 6.53906 9.94216 6.53906H7.1367C6.89763 6.53906 6.76755 6.8168 6.92224 6.99961L16.1508 18L6.92224 29.0004C6.88759 29.0411 6.86536 29.091 6.85819 29.144C6.85102 29.197 6.85921 29.2509 6.88179 29.2994C6.90437 29.3479 6.94039 29.3889 6.98557 29.4175C7.03076 29.4462 7.08321 29.4612 7.1367 29.4609H9.94216C10.1074 29.4609 10.2656 29.3871 10.3746 29.2605L17.9859 20.1867L25.5972 29.2605C25.7027 29.3871 25.8609 29.4609 26.0297 29.4609H28.8351C29.0742 29.4609 29.2043 29.1832 29.0496 29.0004L19.8211 18Z" fill="#4024AD"/>
</svg>
