<svg width="57" height="65" viewBox="0 0 57 65" fill="none" xmlns="http://www.w3.org/2000/svg">
<g clip-path="url(#clip0_26_20)">
<path d="M17.8173 0H23.94V2.91958H20.3775V5.83917H23.94V8.75875H17.8173V0ZM25.1631 0H31.2883V2.54042H27.7258V3.04688H31.2883V8.88604H25.1631V6.22104H28.7256V5.71188H25.1631V0ZM32.5138 0H38.6341V2.54042H35.0716V3.04688H38.6341V8.88604H32.5138V6.22104H36.0763V5.71188H32.5138V0Z" fill="#026BE6"/>
<path fill-rule="evenodd" clip-rule="evenodd" d="M28.4786 64.9999L11.9866 59.7783L7.125 12.7751H49.875L45.0158 59.7729L28.4786 64.9999ZM16.7366 34.0518L17.1902 39.8151H34.7106L34.124 47.2901L28.4858 49.0289H28.481L22.8522 47.2956L22.4913 42.6995H17.4159L18.1236 51.7508L28.4786 55.0279L38.8502 51.7508L40.1137 35.5983L40.2372 34.0518L41.1493 22.3816H15.827L16.2877 28.1476H35.6108L35.15 34.0518H16.7366V34.0518Z" fill="#026BE6"/>
</g>
<defs>
<clipPath id="clip0_26_20">
<rect width="57" height="65" fill="white"/>
</clipPath>
</defs>
</svg>
