<svg width="29" height="30" viewBox="0 0 29 30" fill="none" xmlns="http://www.w3.org/2000/svg">
<path d="M17.9898 20.708H15.9637V13.8459C15.9637 13.7213 15.8652 13.6194 15.7449 13.6194H14.1043C13.984 13.6194 13.8855 13.7213 13.8855 13.8459V20.708H11.8648C11.6816 20.708 11.5804 20.926 11.6926 21.0733L14.7551 25.0863C14.7755 25.1134 14.8017 25.1353 14.8315 25.1503C14.8614 25.1654 14.8941 25.1732 14.9273 25.1732C14.9605 25.1732 14.9933 25.1654 15.0231 25.1503C15.053 25.1353 15.0791 25.1134 15.0996 25.0863L18.1621 21.0733C18.2742 20.926 18.173 20.708 17.9898 20.708Z" fill="white"/>
<path d="M23.114 11.0904C21.8617 7.66929 18.6707 5.23657 14.9328 5.23657C11.1949 5.23657 8.00388 7.66646 6.75154 11.0875C4.40818 11.7248 2.67732 13.9366 2.67732 16.5647C2.67732 19.6941 5.12459 22.2288 8.14334 22.2288H9.23982C9.36014 22.2288 9.45857 22.1268 9.45857 22.0022V20.303C9.45857 20.1784 9.36014 20.0764 9.23982 20.0764H8.14334C7.22185 20.0764 6.35506 19.6969 5.70974 19.0087C5.06717 18.3234 4.72537 17.4001 4.75545 16.4429C4.78006 15.6953 5.02615 14.9929 5.47185 14.401C5.92849 13.7978 6.56834 13.3588 7.27928 13.1634L8.3156 12.8831L8.69568 11.8465C8.93084 11.2008 9.25896 10.5976 9.67185 10.051C10.0795 9.50928 10.5623 9.03305 11.1047 8.63784C12.2285 7.81939 13.5519 7.38608 14.9328 7.38608C16.3137 7.38608 17.6371 7.81939 18.7609 8.63784C19.3051 9.03433 19.7863 9.51011 20.1937 10.051C20.6066 10.5976 20.9347 11.2037 21.1699 11.8465L21.5472 12.8802L22.5808 13.1634C24.0629 13.5769 25.0992 14.9731 25.0992 16.5647C25.0992 17.5021 24.7465 18.3857 24.1066 19.0484C23.7928 19.3753 23.4196 19.6345 23.0084 19.8109C22.5972 19.9874 22.1564 20.0776 21.7113 20.0764H20.6148C20.4945 20.0764 20.3961 20.1784 20.3961 20.303V22.0022C20.3961 22.1268 20.4945 22.2288 20.6148 22.2288H21.7113C24.7301 22.2288 27.1773 19.6941 27.1773 16.5647C27.1773 13.9394 25.4519 11.7304 23.114 11.0904Z" fill="white"/>
</svg>
