<svg width="24" height="24" viewBox="0 0 24 24" fill="none" xmlns="http://www.w3.org/2000/svg">
<path d="M24 4.50001V19.5C24 20.3513 23.3512 21 22.5 21H21V7.38676L12 13.8518L3 7.38676V21H1.5C0.64875 21 0 20.3513 0 19.5V4.50001C0 4.07401 0.1605 3.69901 0.42975 3.43351C0.569979 3.2932 0.736987 3.18252 0.920845 3.10805C1.1047 3.03358 1.30166 2.99684 1.5 3.00001H2.00025L12 10.2503L21.9998 3.00001H22.5C22.926 3.00001 23.301 3.16051 23.5703 3.43351C23.8395 3.69901 24 4.07401 24 4.50001Z" fill="black"/>
</svg>
