<svg width="43" height="64" viewBox="0 0 43 64" fill="none" xmlns="http://www.w3.org/2000/svg">
<path d="M4.86623 0H7.39761V2.83447H9.71375V0H12.2451V8.5803H9.71375V5.70871H7.39761V8.5803H4.86857V0H4.86623ZM15.572 2.84508H13.3447V0H20.3329V2.84508H18.1033V8.5803H15.572V2.84508V2.84508ZM21.4419 0H24.0809L25.7045 3.01477L27.3258 0H29.9648V8.5803H27.4451V4.32727L25.7045 7.37917H25.6601L23.9171 4.32992V8.5803H21.4419V0V0ZM31.2235 0H33.7572V5.74583H37.3133V8.58295H31.2235V0V0Z" fill="#E94029"/>
<path fill-rule="evenodd" clip-rule="evenodd" d="M4.7867 58.5244L0 12.5073H42.1117L37.3227 58.5191L21.0325 63.6365L4.7867 58.5244ZM14.4654 33.335L14.0115 27.5547H33.067L33.5116 21.9122H8.57207L9.91497 38.9801H27.1737L26.5959 46.2982L21.0418 48.0005H21.0371L15.4924 46.3035L15.1368 41.8039H10.1349L10.8321 50.6653L21.0325 53.8736L31.2492 50.6653L32.4939 34.8516L32.6155 33.3376H14.4654V33.335Z" fill="#E94029"/>
</svg>
