<svg width="74" height="80" viewBox="0 0 74 80" fill="none" xmlns="http://www.w3.org/2000/svg">
<path d="M0 0H74V80H0V0ZM67.9361 60.92C67.3976 57.2711 65.1981 54.2044 58.6779 51.3422C56.4086 50.1911 53.8884 49.3956 53.132 47.5467C52.8524 46.4444 52.8113 45.8489 52.9922 45.1956C53.4568 43.0444 55.8166 42.4 57.6666 42.9956C58.8711 43.3956 59.9811 44.3956 60.6759 46C63.862 43.7467 63.862 43.7467 66.0861 42.2489C65.2516 40.8533 64.8363 40.2444 64.2813 39.6444C62.3368 37.2978 59.7468 36.0978 55.5411 36.2L53.3704 36.4978C51.2861 37.0489 49.2963 38.2533 48.0959 39.8489C44.5809 44.1511 45.5963 51.6489 49.8513 54.7556C54.057 58.1556 60.2154 58.9022 61.0007 62.1022C61.7407 66.0044 58.3202 67.2533 54.9368 66.8044C52.4413 66.2 51.0518 64.8533 49.5266 62.3511L43.8861 65.8533C44.5316 67.4489 45.2716 68.1511 46.3816 69.5511C51.7466 75.4 65.1611 75.1022 67.5661 66.2C67.6524 65.9022 68.3061 63.8533 67.7963 60.7022L67.9361 60.92ZM40.2396 36.7689H33.3082C33.3082 43.2267 33.2794 49.6489 33.2794 56.12C33.2794 60.2267 33.4727 63.9956 32.8519 65.1556C31.8364 67.4533 29.2094 67.16 28.0213 66.7511C26.8003 66.1022 26.1796 65.2 25.4601 63.9022C25.2669 63.5556 25.123 63.2533 25.0696 63.2533L19.4456 67.0044C20.387 69.1067 21.7601 70.9111 23.532 72.0578C26.1672 73.76 29.7069 74.3111 33.4151 73.4133C35.8324 72.6578 37.9168 71.1067 38.998 68.7067C40.5767 65.6089 40.2396 61.8044 40.2272 57.5556C40.2601 50.7067 40.2272 43.8533 40.2272 36.9556L40.2396 36.7689Z" fill="#FFEA28"/>
</svg>
