<svg width="38" height="59" viewBox="0 0 38 59" fill="none" xmlns="http://www.w3.org/2000/svg">
<path d="M20.4652 21.4747L15.0943 0H37.9126L32.5231 21.5371C32.2912 21.6123 32.0632 21.708 31.8406 21.8237L26.5165 7.10812L21.177 21.7367C20.9444 21.6276 20.7066 21.5401 20.4652 21.4747ZM2.91725 56.628C10.0943 63.4584 18.0552 50.2417 28.8989 48.5767C35.126 48.0767 39.3586 42.9117 36.9469 34.9161C32.463 38.658 28.2724 33.7546 28.3017 28.8341H24.8944C24.7826 33.2271 22.3438 36.6831 18.5636 36.1694C15.6046 42.1669 12.1752 45.5366 8.28388 47.2494C5.6538 45.6049 3.17875 41.5991 4.3009 36.2488C3.81259 36.1749 3.33388 36.0121 2.87774 35.7647C-0.739647 44.9167 -1.18665 52.1497 2.91725 56.628V56.628ZM8.26041 28.8348C8.26041 25.3587 5.46399 23.1745 3.23904 24.9125C1.01408 26.6504 1.01391 31.0192 3.23904 32.7571C5.46399 34.4952 8.26041 32.3109 8.26041 28.8348ZM22.7333 28.7917C22.7333 25.3157 19.9368 23.1313 17.7119 24.8694C15.4869 26.6075 15.4868 30.9761 17.7119 32.714C19.9369 34.4521 22.7332 32.2678 22.7332 28.7917H22.7333ZM37.1519 28.7917C37.1519 25.3157 34.3554 23.1313 32.1304 24.8694C29.9054 26.6075 29.9054 30.9761 32.1304 32.714C34.3554 34.4521 37.1518 32.2678 37.1518 28.7917H37.1519Z" fill="#831B1B"/>
</svg>
