<svg width="50" height="50" viewBox="0 0 50 50" fill="none" xmlns="http://www.w3.org/2000/svg">
<path d="M41.4062 21.875C41.4062 33.5938 25 44.5312 25 44.5312C25 44.5312 8.59375 33.5938 8.59375 21.875C8.59375 17.5238 10.3223 13.3508 13.399 10.274C16.4758 7.19726 20.6488 5.46875 25 5.46875C29.3512 5.46875 33.5242 7.19726 36.601 10.274C39.6777 13.3508 41.4062 17.5238 41.4062 21.875V21.875Z" stroke="#4024AD" stroke-width="4.6875" stroke-linecap="round" stroke-linejoin="round"/>
<path d="M24.4624 23.1755C24.2662 23.0942 24.0656 23.0397 23.8647 23.0103C23.8353 22.8094 23.7808 22.6088 23.6995 22.4126C23.6322 22.2503 23.5938 22.0703 23.5938 21.875C23.5938 21.6797 23.6322 21.4997 23.6995 21.3374C23.7808 21.1412 23.8353 20.9406 23.8647 20.7397C24.0656 20.7103 24.2662 20.6558 24.4624 20.5745C24.6247 20.5072 24.8047 20.4688 25 20.4688C25.1965 20.4688 25.3879 20.5077 25.5674 20.5809C25.7794 20.6673 25.9963 20.7225 26.213 20.7487C26.2454 20.9579 26.305 21.1665 26.3937 21.3697C26.4631 21.5283 26.5 21.6972 26.5 21.875C26.5 22.0528 26.4631 22.2217 26.3937 22.3803C26.305 22.5835 26.2454 22.792 26.213 23.0013C25.9963 23.0275 25.7794 23.0827 25.5674 23.1691C25.3879 23.2423 25.1965 23.2812 25 23.2812C24.8047 23.2812 24.6247 23.2428 24.4624 23.1755Z" fill="white" stroke="#4024AD" stroke-width="5" stroke-linecap="round" stroke-linejoin="round" stroke-dasharray="10 10"/>
</svg>
