<svg width="74" height="80" viewBox="0 0 74 80" fill="none" xmlns="http://www.w3.org/2000/svg">
<path d="M54.9178 74.6863C54.6427 74.8431 54.6658 74.8929 54.9294 74.7485C55.0107 74.7128 55.0851 74.6613 55.1491 74.5967C55.1491 74.5444 55.1491 74.5444 54.9178 74.6863V74.6863ZM55.4728 74.3627C55.341 74.4797 55.341 74.4797 55.4983 74.4025C55.5564 74.3732 55.6095 74.3337 55.6555 74.2855C55.6555 74.2183 55.6185 74.2332 55.4728 74.3627V74.3627ZM55.8336 74.1287C55.7018 74.2457 55.7018 74.2457 55.859 74.1685C55.9173 74.1386 55.9705 74.0982 56.0163 74.049C56.0163 73.9868 55.9793 73.9992 55.8336 74.1287ZM56.1989 73.8972C56.0671 74.0142 56.0671 74.0142 56.2197 73.9345C56.3053 73.8847 56.377 73.8324 56.377 73.8175C56.377 73.7553 56.34 73.7677 56.1989 73.8972ZM56.6915 73.5461C56.4394 73.7279 56.3516 73.8449 56.5828 73.7154C56.7377 73.6134 57.0013 73.3893 56.9551 73.3893C56.8557 73.4291 56.7724 73.4964 56.6892 73.5461H56.6915ZM34.5777 0.0182974C34.4089 0.0307445 33.9025 0.0805332 33.4585 0.120364C22.9416 1.14601 13.1022 7.24014 6.8656 16.6278C3.41907 21.7765 1.17878 27.7453 0.335302 34.0264C0.0369989 36.2171 0 36.8644 0 39.8343C0 42.8017 0.0369989 43.439 0.335302 45.6297C2.34943 60.5936 12.2374 73.1553 25.6402 77.8105C28.0521 78.6395 30.5795 79.2121 33.4585 79.5631C34.5777 79.6925 39.4176 79.6925 40.5369 79.5631C45.5132 78.9656 49.7149 77.6437 53.8726 75.3609C54.5109 75.0124 54.6311 74.9203 54.5455 74.8431C52.5173 71.9568 50.5062 69.0566 48.5124 66.1426L42.5995 57.5466L35.1928 45.7342C32.7291 41.7792 30.2401 37.8425 27.726 33.9244C27.7006 33.9244 27.6682 39.1746 27.6543 45.5774C27.6289 56.7923 27.6289 57.2478 27.4971 57.5067C27.3707 57.8195 27.1442 58.073 26.8588 58.2212C26.6299 58.3382 26.4241 58.3631 25.3303 58.3631H24.0793L23.7533 58.144C23.549 58.003 23.3831 57.8063 23.2723 57.574L23.115 57.2229L23.1266 41.6117L23.152 26.0005L23.381 25.6893C23.5272 25.498 23.7071 25.3398 23.9105 25.2238C24.2134 25.067 24.3337 25.0421 25.5847 25.0421C27.0531 25.0421 27.2959 25.1043 27.6821 25.5599C30.6825 30.3642 33.6571 35.1871 36.6057 40.0284C41.4133 47.8751 47.9759 58.5822 51.2018 63.8349L57.0684 73.3918L57.3575 73.1852C60.1769 71.1682 62.7318 68.7526 64.9538 66.0032C69.6146 60.2603 72.639 53.1928 73.6647 45.6471C73.963 43.4564 74 42.8066 74 39.8392C74 36.8693 73.963 36.2345 73.6647 34.0438C71.6506 19.0799 61.7626 6.5182 48.3598 1.86048C45.8549 1.0064 43.2768 0.425114 40.664 0.125343C39.9634 0.0481706 35.1813 -0.0439384 34.58 0.0232763L34.5777 0.0182974ZM49.7172 24.1085C49.8892 24.1995 50.0427 24.3265 50.1685 24.4821C50.2944 24.6377 50.3902 24.8187 50.4502 25.0147C50.5127 25.2238 50.5242 29.5529 50.5127 39.304L50.4872 53.3046L48.2002 49.5206L45.8994 45.7342V35.5699C45.8994 28.9803 45.9248 25.286 45.9572 25.1043C46.0704 24.6876 46.33 24.3348 46.681 24.121C46.9677 23.9641 47.0787 23.9517 48.2234 23.9517C49.294 23.9517 49.4744 23.9641 49.7149 24.1085H49.7172Z" fill="black"/>
</svg>
