<svg width="66" height="57" viewBox="0 0 66 57" fill="none" xmlns="http://www.w3.org/2000/svg">
<path d="M66 28.5067C66 24.2663 60.5247 20.2472 52.129 17.7563C54.0677 9.45955 53.207 2.85627 49.412 0.741403C48.4924 0.241944 47.4517 -0.00946192 46.398 0.0133346V2.92027C47.0167 2.92027 47.5145 3.04028 47.9325 3.26164C49.7613 4.2804 50.556 8.15276 49.9373 13.1372C49.7888 14.364 49.5468 15.6548 49.2498 16.9723C46.4382 16.3152 43.5848 15.8404 40.7083 15.5508C38.9946 13.258 37.125 11.0787 35.112 9.02751C39.4982 5.07514 43.615 2.90961 46.4145 2.90961V0C42.713 0 37.8702 2.55757 32.9725 6.99265C28.0775 2.58691 23.232 0.0533383 19.5333 0.0533383V2.96028C22.319 2.96028 26.4495 5.11515 30.8358 9.04085C28.952 10.961 27.0683 13.1372 25.278 15.5508C22.3955 15.8371 19.537 16.3166 16.7227 16.9856C16.4253 15.7369 16.1913 14.4748 16.0215 13.2039C15.389 8.21677 16.17 4.34441 17.9877 3.31498C18.3892 3.08029 18.9145 2.97361 19.5333 2.97361V0.0666728C18.4058 0.0666728 17.38 0.301361 16.4945 0.794741C12.7133 2.90961 11.8663 9.49689 13.816 17.7697C5.44775 20.2766 0 24.2796 0 28.5067C0 32.7471 5.47525 36.7661 13.871 39.2543C11.9323 47.5538 12.793 54.1571 16.588 56.2693C17.4625 56.7653 18.4855 57 19.613 57C23.3145 57 28.1573 54.4424 33.055 50.0073C37.95 54.4158 42.7927 56.9467 46.4942 56.9467C47.556 56.9684 48.6047 56.7162 49.533 56.2159C53.3142 54.1037 54.1613 47.5164 52.2115 39.2437C60.5523 36.7528 66 32.7337 66 28.5067ZM48.4825 19.8045C47.96 21.5483 47.3543 23.2676 46.6675 24.957C45.5432 22.8362 44.3087 20.772 42.9688 18.7724C44.88 19.0471 46.7225 19.3858 48.4853 19.8045H48.4825ZM42.3225 33.6992C41.3152 35.4046 40.2335 37.0676 39.0803 38.6836C35.0439 39.0286 30.9844 39.0331 26.9472 38.697C24.6316 35.4891 22.6065 32.093 20.8945 28.5467C22.6039 24.992 24.6204 21.5839 26.9225 18.3591C30.9578 18.0133 35.0165 18.008 39.0528 18.3431C40.1693 19.8952 41.261 21.554 42.3088 23.3035C43.3318 25.0103 44.2612 26.7438 45.1082 28.4933C44.2519 30.2641 43.3225 32.0007 42.3225 33.6992V33.6992ZM46.6675 32.003C47.3935 33.7498 48.015 35.4993 48.5238 37.1955C46.7638 37.6142 44.9048 37.9662 42.9825 38.2382C44.3169 36.2205 45.5468 34.1395 46.6675 32.003V32.003ZM33.0275 45.9243C31.7763 44.6708 30.525 43.2761 29.2875 41.7479C30.4975 41.8012 31.735 41.8412 32.9862 41.8412C34.2512 41.8412 35.5025 41.8146 36.7262 41.7479C35.5162 43.2761 34.265 44.6708 33.0275 45.9243ZM23.0175 38.2382C21.1633 37.9777 19.3225 37.6342 17.501 37.2088C17.9987 35.526 18.6175 33.7898 19.316 32.0563C19.8688 33.0964 20.449 34.1419 21.0815 35.1873C21.714 36.2301 22.3575 37.2488 23.0175 38.2382ZM32.9587 11.089C34.21 12.3425 35.4613 13.7373 36.6988 15.2654C35.4888 15.2121 34.2513 15.1721 33 15.1721C31.735 15.1721 30.4838 15.1988 29.26 15.2654C30.47 13.7373 31.7212 12.3425 32.9587 11.089ZM23.0037 18.7751C21.6696 20.7884 20.4398 22.865 19.3188 24.997C18.6126 23.2967 17.9931 21.5638 17.4625 19.8045C19.2225 19.3991 21.0815 19.0471 23.0037 18.7751ZM10.8295 35.1073C6.0665 33.1391 2.9865 30.5549 2.9865 28.5067C2.9865 26.4585 6.0665 23.8609 10.8295 21.9061C11.9845 21.4233 13.2495 20.9913 14.5558 20.5886C15.323 23.1435 16.3323 25.8051 17.5808 28.5333C16.402 31.0994 15.4051 33.7404 14.597 36.4381C13.3195 36.0545 12.0621 35.6103 10.8295 35.1073V35.1073ZM18.0675 53.749C16.2388 52.7356 15.444 48.8579 16.0628 43.8761C16.2113 42.6493 16.4533 41.3559 16.7503 40.0384C19.3848 40.6651 22.264 41.1479 25.2917 41.4626C27.0055 43.7553 28.8751 45.9345 30.888 47.9858C26.5018 51.9382 22.385 54.1037 19.5855 54.1037C19.0573 54.1093 18.5359 53.9884 18.0675 53.7517V53.749ZM49.9785 43.8094C50.611 48.7939 49.83 52.6689 48.0122 53.6984C47.6107 53.9331 47.0855 54.0371 46.4667 54.0371C43.681 54.0371 39.5505 51.8849 35.1642 47.9565C37.1688 45.9138 39.0258 43.7396 40.722 41.4492C43.6045 41.1629 46.463 40.6835 49.2773 40.0144C49.588 41.3319 49.8272 42.596 49.9785 43.8094V43.8094ZM55.1567 35.1073C54.0017 35.59 52.7367 36.022 51.4305 36.4247C50.6082 33.7133 49.5975 31.059 48.4055 28.48C49.643 25.7677 50.6358 23.1195 51.3893 20.5753C52.6708 20.9601 53.9327 21.4042 55.1705 21.9061C59.9335 23.8742 63.0135 26.4585 63.0135 28.5067C62.9997 30.5549 59.9197 33.1524 55.1567 35.1073V35.1073Z" fill="#0094FF" fill-opacity="0.69"/>
<path d="M32.9862 34.4699C34.6171 34.4699 36.1811 33.8416 37.3342 32.7233C38.4874 31.605 39.1353 30.0882 39.1353 28.5067C39.1353 26.9251 38.4874 25.4084 37.3342 24.29C36.1811 23.1717 34.6171 22.5435 32.9862 22.5435C31.3554 22.5435 29.7914 23.1717 28.6382 24.29C27.4851 25.4084 26.8372 26.9251 26.8372 28.5067C26.8372 30.0882 27.4851 31.605 28.6382 32.7233C29.7914 33.8416 31.3554 34.4699 32.9862 34.4699V34.4699Z" fill="#0094FF" fill-opacity="0.69"/>
</svg>
