<svg width="70" height="56" viewBox="0 0 70 56" fill="none" xmlns="http://www.w3.org/2000/svg">
<path d="M57.0764 16.1273C54.4822 14.9445 52.1923 12.8178 50.4694 9.99104C48.5705 6.84157 46.1525 4.3088 43.4006 2.58647C40.6486 0.864153 37.6355 -0.00208275 34.5918 0.0540336C30.4974 -0.329821 26.444 1.34193 23.2388 4.73636C20.0336 8.1308 17.9118 12.9989 17.2959 18.3711C18.5089 15.6842 20.3346 13.576 22.5102 12.3499C24.6858 11.1238 27.0992 10.843 29.403 11.548C31.9928 12.7652 34.279 14.9043 36.01 17.73C37.9193 20.8543 40.3419 23.3609 43.0933 25.0591C45.8447 26.7572 48.8524 27.6022 51.8876 27.5296C55.982 27.9135 60.0354 26.2417 63.2406 22.8473C66.4458 19.4529 68.5676 14.5848 69.1835 9.21256C67.9925 11.9316 66.1726 14.0716 63.9926 15.3167C61.8125 16.5618 59.3878 16.846 57.0764 16.1273ZM12.1071 38.932C14.7013 40.1148 16.9912 42.2415 18.7141 45.0682C20.6131 48.2177 23.031 50.7504 25.783 52.4728C28.5349 54.1951 31.548 55.0613 34.5918 55.0052C38.6862 55.3891 42.7396 53.7173 45.9447 50.3229C49.1499 46.9284 51.2718 42.0604 51.8876 36.6882C50.6746 39.3751 48.8489 41.4833 46.6733 42.7093C44.4977 43.9354 42.0843 44.2162 39.7805 43.5113C37.1907 42.294 34.9045 40.155 33.1735 37.3293C31.259 34.2127 28.8355 31.7116 26.0853 30.0142C23.3351 28.3167 20.3299 27.4673 17.2959 27.5296C13.2015 27.1458 9.14808 28.8175 5.94288 32.212C2.73769 35.6064 0.615879 40.4744 0 45.8467C1.19102 43.1276 3.01089 40.9876 5.19096 39.7425C7.37102 38.4974 9.79573 38.2133 12.1071 38.932Z" fill="#10C6FF"/>
</svg>
