<svg width="74" height="80" viewBox="0 0 74 80" fill="none" xmlns="http://www.w3.org/2000/svg">
<path d="M0 40V80H74V0H0V40ZM59.6301 36.81C61.4041 37.2616 63.0164 38.2665 64.2667 39.7C64.9419 40.48 65.9525 41.9125 66.0381 42.265C66.0612 42.37 62.8468 44.7 60.8951 46.0025C60.8234 46.055 60.5343 45.73 60.2198 45.22C59.2694 43.7225 58.2681 43.0725 56.7395 42.955C54.4987 42.7975 53.0534 44.0625 53.0649 46.185C53.0532 46.7044 53.1604 47.2188 53.3771 47.6825C53.872 48.79 54.7993 49.4525 57.6645 50.795C62.9648 53.255 65.2287 54.8825 66.637 57.1875C68.2141 59.765 68.5633 63.88 67.5042 66.9525C66.3248 70.2725 63.4088 72.5375 59.3133 73.28C58.0484 73.5275 55.0375 73.4875 53.6754 73.215C50.7016 72.6425 47.8826 71.0525 46.1482 68.97C45.4614 68.1625 44.1364 66.04 44.2219 65.8975C44.2589 65.845 44.5596 65.6375 44.8972 65.4275L47.6444 63.7075L49.7766 62.3675L50.2229 63.0825C50.8496 64.11 52.2093 65.5175 53.0302 65.985C55.3913 67.34 58.6311 67.145 60.2337 65.595C60.8835 65.01 61.2466 64.11 61.198 63.2C61.198 62.275 61.0893 61.86 60.643 61.1675C60.0649 60.2825 58.8971 59.5275 55.5601 57.965C51.7422 56.18 50.0911 55.0875 48.5995 53.33C47.6605 52.1732 46.9661 50.809 46.5645 49.3325C46.287 48.2 46.2153 45.36 46.4327 44.2275C47.2166 40.23 50.0101 37.4575 54.02 36.6375C55.3219 36.365 58.3559 36.4675 59.6324 36.8075L59.6301 36.81ZM42.2632 40.1575L42.2864 43.425H32.6502V73.0225H25.8329V43.425H16.2106V40.2225C16.2106 38.4375 16.2476 36.955 16.2939 36.915C16.3309 36.8625 22.1838 36.8375 29.2901 36.85L42.2263 36.89L42.2632 40.1575Z" fill="#0765F2"/>
</svg>
